<svg width="23" height="9" viewBox="0 0 23 9" fill="none" xmlns="http://www.w3.org/2000/svg">
<path d="M0.124245 8.70431L10.4756 8.65175L10.4911 5.51837L12.5021 5.50821L12.486 8.64157L22.8373 8.5896L22.8792 0.299183L12.5279 0.351775L12.5123 3.48513L10.5013 3.49528L10.5175 0.361928L0.166118 0.413899L0.124245 8.70431ZM2.15769 6.67087L2.17911 2.42715L8.48395 2.39531L8.47833 3.50558L6.44875 3.51582L6.43853 5.53905L8.46814 5.52882L8.46252 6.63909L2.15769 6.67087ZM14.5197 6.60842L14.5253 5.49813L16.5549 5.48791L16.5651 3.46466L14.5355 3.47491L14.5411 2.36436L20.8463 2.33221L20.825 6.57629L14.5198 6.60789L14.5197 6.60842Z" fill="black"/>
</svg>
