<svg width="18" height="26" viewBox="0 0 18 26" fill="none" xmlns="http://www.w3.org/2000/svg">
<path d="M9.45495 12.372C8.57213 12.7522 7.57024 13.1834 6.27176 13.1834C5.72857 13.1822 5.18802 13.1073 4.66479 12.9604L5.56285 22.2369C5.59463 22.6246 5.77019 22.9861 6.05466 23.2496C6.33913 23.5132 6.7117 23.6594 7.0984 23.6594C7.0984 23.6594 8.37169 23.7259 8.79658 23.7259C9.25394 23.7259 10.6251 23.6594 10.6251 23.6594C11.0118 23.6594 11.3842 23.513 11.6686 23.2495C11.953 22.986 12.1286 22.6245 12.1603 22.2369L13.1222 11.986C12.6924 11.8383 12.2585 11.7402 11.7695 11.7402C10.9237 11.7399 10.2422 12.033 9.45495 12.372Z" fill="black"/>
<path d="M17.2759 7.5619L17.1407 6.87561C17.0193 6.25984 16.7439 5.67801 16.1157 5.45545C15.9143 5.38426 15.6858 5.35365 15.5314 5.20628C15.377 5.05891 15.3313 4.83004 15.2956 4.6178C15.2295 4.22824 15.1674 3.83835 15.0996 3.44947C15.0411 3.11514 14.9948 2.73955 14.8423 2.43283C14.6439 2.021 14.2322 1.78015 13.8229 1.6208C13.6132 1.54202 13.3991 1.47538 13.1818 1.4212C12.1591 1.14974 11.0838 1.04994 10.0317 0.993053C8.76881 0.922944 7.50261 0.944067 6.24275 1.05626C5.30502 1.14209 4.31737 1.24588 3.42626 1.57223C3.10057 1.69166 2.76496 1.83503 2.5173 2.08819C2.21343 2.39924 2.11424 2.88027 2.33611 3.26816C2.49383 3.54361 2.76099 3.73823 3.04436 3.86697C3.41346 4.03285 3.79893 4.15907 4.19437 4.24354C5.29543 4.48839 6.43585 4.58453 7.56075 4.62544C8.80752 4.67607 10.0563 4.63504 11.2971 4.50269C11.6039 4.46876 11.9102 4.42806 12.216 4.38061C12.5761 4.32505 12.8072 3.85133 12.701 3.52132C12.5741 3.12678 12.2328 2.97375 11.8469 3.0333C11.7901 3.04228 11.7335 3.0506 11.6767 3.05892L11.6357 3.0649C11.5049 3.08154 11.3742 3.09706 11.2435 3.11148C10.9735 3.14075 10.7028 3.16471 10.4314 3.18334C9.82367 3.22592 9.21434 3.24554 8.60522 3.24654C8.00678 3.24654 7.40799 3.22957 6.81081 3.18999C6.53835 3.17202 6.26655 3.14918 5.99542 3.12145C5.87209 3.10849 5.74909 3.09485 5.62609 3.07954L5.50903 3.06457L5.48357 3.06091L5.36222 3.04328C5.11424 3.00569 4.86625 2.96244 4.6209 2.91021C4.59615 2.90469 4.57401 2.89083 4.55813 2.87093C4.54226 2.85103 4.53361 2.82628 4.53361 2.80076C4.53361 2.77525 4.54226 2.7505 4.55813 2.7306C4.57401 2.7107 4.59615 2.69684 4.6209 2.69132H4.62553C4.83814 2.64574 5.0524 2.60682 5.26733 2.57289C5.33897 2.56158 5.41083 2.55049 5.48292 2.53962H5.48489C5.61947 2.53064 5.75471 2.50636 5.88862 2.49039C7.05371 2.36846 8.22578 2.32689 9.39649 2.36597C9.96489 2.38261 10.5329 2.4162 11.0987 2.47409C11.2203 2.48673 11.3414 2.50004 11.4624 2.515C11.5087 2.52066 11.5553 2.52732 11.6019 2.53297L11.6958 2.54661C11.9696 2.58764 12.2419 2.63743 12.5129 2.69598C12.9143 2.7838 13.4298 2.81241 13.6084 3.25486C13.6652 3.39524 13.691 3.55127 13.7224 3.69864L13.7624 3.88659C13.7635 3.88997 13.7642 3.89341 13.7647 3.8969C13.8593 4.34046 13.9539 4.78401 14.0488 5.22757C14.0557 5.26034 14.0559 5.29419 14.0492 5.32703C14.0426 5.35986 14.0293 5.39097 14.0102 5.41841C13.9911 5.44584 13.9666 5.46902 13.9382 5.4865C13.9097 5.50398 13.878 5.51538 13.8451 5.51999H13.8424L13.7846 5.52798L13.7273 5.53563C13.5462 5.55936 13.3648 5.58153 13.1831 5.60216C12.8253 5.64319 12.467 5.67867 12.1082 5.70861C11.395 5.76827 10.6805 5.80742 9.96453 5.82605C9.59972 5.8358 9.23506 5.84035 8.87046 5.83969C7.41917 5.83853 5.96924 5.75367 4.52766 5.58552C4.37159 5.56689 4.21553 5.54694 4.05946 5.52664C4.18048 5.54228 3.97151 5.51467 3.92919 5.50868C3.82999 5.4947 3.73079 5.48018 3.6316 5.4651C3.29863 5.41486 2.96765 5.35299 2.63535 5.29877C2.2336 5.23223 1.84939 5.2655 1.486 5.4651C1.18772 5.62932 0.946298 5.88115 0.79395 6.18699C0.637222 6.513 0.590598 6.86796 0.520503 7.21826C0.450404 7.56856 0.341288 7.94547 0.38262 8.30509C0.471565 9.08121 1.01086 9.71193 1.78656 9.853C2.51631 9.98607 3.25002 10.0938 3.98573 10.1856C6.87572 10.5418 9.79536 10.5843 12.6944 10.3127C12.9305 10.2906 13.1663 10.2663 13.4017 10.2402C13.4752 10.2321 13.5496 10.2406 13.6195 10.2652C13.6893 10.2897 13.7528 10.3297 13.8053 10.3821C13.8577 10.4345 13.898 10.4981 13.9228 10.5682C13.9478 10.6383 13.9567 10.7131 13.9492 10.7871L13.8758 11.505C13.7279 12.9557 13.58 14.4062 13.4321 15.8566C13.2778 17.3798 13.1225 18.9028 12.9662 20.4258C12.9221 20.8547 12.878 21.2836 12.8339 21.7123C12.7916 22.1344 12.7857 22.5699 12.706 22.987C12.5804 23.6431 12.1389 24.0459 11.4948 24.1933C10.9047 24.3284 10.3019 24.3993 9.69672 24.4048C9.0258 24.4085 8.35525 24.3786 7.68441 24.3822C6.96819 24.3862 6.09098 24.3197 5.53813 23.7834C5.0524 23.3124 4.98528 22.5749 4.91915 21.9371C4.83098 21.0928 4.74358 20.2486 4.65695 19.4045L4.17089 14.7109L3.85644 11.674C3.85115 11.6238 3.84586 11.5742 3.8409 11.5237C3.80321 11.1614 3.54827 10.8068 3.14653 10.825C2.80266 10.8404 2.41182 11.1344 2.45217 11.5237L2.68527 13.7751L3.16736 18.4324C3.30469 19.7554 3.44169 21.0785 3.57836 22.4018C3.60481 22.6553 3.62961 22.9095 3.65739 23.163C3.8085 24.5482 4.85996 25.2947 6.16207 25.505C6.92257 25.6281 7.70161 25.6534 8.47332 25.666C9.46266 25.6819 10.4618 25.7202 11.435 25.5399C12.8769 25.2738 13.9588 24.305 14.1132 22.8024C14.1573 22.3686 14.2014 21.9347 14.2455 21.5006C14.3921 20.0653 14.5385 18.6298 14.6846 17.1943L15.1627 12.5037L15.3819 10.354C15.3928 10.2474 15.4376 10.1472 15.5095 10.0681C15.5814 9.9891 15.6768 9.93551 15.7814 9.91517C16.1937 9.83432 16.5878 9.69628 16.8811 9.38059C17.348 8.87796 17.4409 8.22258 17.2759 7.5619ZM1.7654 8.02564C1.77169 8.02264 1.76011 8.07689 1.75516 8.10213C1.75416 8.06391 1.75615 8.02997 1.7654 8.02564ZM1.80542 8.33704C1.80872 8.33466 1.81863 8.348 1.82889 8.36394C1.81334 8.3493 1.80343 8.33834 1.80508 8.33704H1.80542ZM1.84476 8.38926C1.85898 8.41356 1.86659 8.42885 1.84476 8.38926V8.38926ZM1.92378 8.45381H1.92577C1.92577 8.45611 1.9294 8.45842 1.93073 8.4608C1.92854 8.45821 1.9261 8.4559 1.92345 8.45381H1.92378ZM15.7622 8.35731C15.6141 8.49903 15.3909 8.56488 15.1703 8.59784C12.6971 8.96711 10.1878 9.15405 7.68735 9.07154C5.89788 9.01002 4.12724 8.8101 2.35561 8.55824C2.18202 8.53365 1.99389 8.5017 1.87452 8.37296C1.64968 8.13012 1.76011 7.64108 1.81863 7.34766C1.87221 7.07887 1.9747 6.72059 2.29246 6.68232C2.78844 6.62378 3.36443 6.83436 3.85512 6.90921C4.44588 6.99991 5.03885 7.07255 5.63402 7.1271C8.1741 7.35997 10.7568 7.32371 13.2856 6.98306C13.7466 6.92074 14.2058 6.84833 14.6634 6.76583C15.0711 6.69231 15.5232 6.55426 15.7695 6.97907C15.9384 7.26849 15.961 7.65571 15.9348 7.98272C15.9268 8.12521 15.8649 8.25922 15.7619 8.35731H15.7622Z" fill="black"/>
</svg>
