<svg width="32" height="24" viewBox="0 0 32 24" fill="none" xmlns="http://www.w3.org/2000/svg">
<path d="M29.764 0.690918H2.9326C2.33959 0.690918 1.77087 0.92649 1.35155 1.34581C0.932228 1.76513 0.696655 2.33386 0.696655 2.92687V20.8144C0.696655 21.4075 0.932228 21.9762 1.35155 22.3955C1.77087 22.8148 2.33959 23.0504 2.9326 23.0504H29.764C30.357 23.0504 30.9257 22.8148 31.345 22.3955C31.7643 21.9762 31.9999 21.4075 31.9999 20.8144V2.92687C31.9999 2.33386 31.7643 1.76513 31.345 1.34581C30.9257 0.92649 30.357 0.690918 29.764 0.690918ZM27.3044 2.92687L16.3483 10.5067L5.39214 2.92687H27.3044ZM2.9326 20.8144V3.94422L15.711 12.7874C15.8982 12.9172 16.1205 12.9868 16.3483 12.9868C16.5761 12.9868 16.7984 12.9172 16.9855 12.7874L29.764 3.94422V20.8144H2.9326Z" fill="black"/>
</svg>
