<svg width="23" height="24" viewBox="0 0 23 24" fill="none" xmlns="http://www.w3.org/2000/svg">
<path fill-rule="evenodd" clip-rule="evenodd" d="M6.71919 0.757996C7.91136 0.703114 8.29147 0.690918 11.3283 0.690918C14.3651 0.690918 14.7452 0.70413 15.9364 0.757996C17.1275 0.811862 17.9406 1.00192 18.652 1.27735C19.397 1.55887 20.0729 1.99895 20.6319 2.5681C21.201 3.12607 21.6401 3.80092 21.9206 4.54691C22.197 5.25835 22.3861 6.07142 22.441 7.26054C22.4958 8.45474 22.508 8.83485 22.508 11.8707C22.508 14.9075 22.4948 15.2876 22.441 16.4798C22.3871 17.6689 22.197 18.4819 21.9206 19.1934C21.6401 19.9395 21.2003 20.6154 20.6319 21.1742C20.0729 21.7434 19.397 22.1824 18.652 22.4629C17.9406 22.7394 17.1275 22.9284 15.9384 22.9833C14.7452 23.0382 14.3651 23.0504 11.3283 23.0504C8.29147 23.0504 7.91136 23.0372 6.71919 22.9833C5.53008 22.9294 4.71701 22.7394 4.00557 22.4629C3.25949 22.1824 2.58353 21.7426 2.02472 21.1742C1.45596 20.6159 1.01582 19.9403 0.734987 19.1944C0.45956 18.483 0.27052 17.6699 0.215638 16.4808C0.160756 15.2866 0.14856 14.9065 0.14856 11.8707C0.14856 8.83383 0.161772 8.45372 0.215638 7.26257C0.269504 6.07142 0.45956 5.25835 0.734987 4.54691C1.01623 3.801 1.45671 3.12537 2.02574 2.56708C2.58375 1.99844 3.25904 1.55831 4.00455 1.27735C4.71599 1.00192 5.52906 0.812879 6.71818 0.757996H6.71919ZM15.8459 2.77035C14.667 2.71648 14.3133 2.7053 11.3283 2.7053C8.34331 2.7053 7.98962 2.71648 6.81067 2.77035C5.72013 2.82015 5.12862 3.00207 4.73428 3.15554C4.2129 3.35881 3.83991 3.59968 3.44861 3.99097C3.0777 4.35183 2.79224 4.79112 2.61318 5.27664C2.45972 5.67098 2.27779 6.26249 2.22799 7.35302C2.17412 8.53198 2.16294 8.88566 2.16294 11.8707C2.16294 14.8556 2.17412 15.2093 2.22799 16.3883C2.27779 17.4788 2.45972 18.0703 2.61318 18.4647C2.79206 18.9495 3.07765 19.3895 3.44861 19.7503C3.80941 20.1213 4.24949 20.4069 4.73428 20.5858C5.12862 20.7392 5.72013 20.9212 6.81067 20.971C7.98962 21.0248 8.34229 21.036 11.3283 21.036C14.3143 21.036 14.667 21.0248 15.8459 20.971C16.9365 20.9212 17.528 20.7392 17.9223 20.5858C18.4437 20.3825 18.8167 20.1416 19.208 19.7503C19.5789 19.3895 19.8645 18.9495 20.0434 18.4647C20.1969 18.0703 20.3788 17.4788 20.4286 16.3883C20.4825 15.2093 20.4936 14.8556 20.4936 11.8707C20.4936 8.88566 20.4825 8.53198 20.4286 7.35302C20.3788 6.26249 20.1969 5.67098 20.0434 5.27664C19.8401 4.75526 19.5993 4.38226 19.208 3.99097C18.8471 3.62008 18.4078 3.33463 17.9223 3.15554C17.528 3.00207 16.9365 2.82015 15.8459 2.77035ZM9.90034 15.3171C10.6978 15.649 11.5858 15.6938 12.4127 15.4438C13.2395 15.1938 13.9539 14.6645 14.4338 13.9463C14.9138 13.228 15.1295 12.3655 15.0441 11.5059C14.9587 10.6463 14.5775 9.84303 13.9657 9.23325C13.5757 8.84346 13.1041 8.545 12.5848 8.35935C12.0656 8.1737 11.5117 8.10548 10.9629 8.15961C10.4142 8.21373 9.88423 8.38885 9.41128 8.67236C8.93833 8.95588 8.53412 9.34072 8.22775 9.7992C7.92138 10.2577 7.72048 10.7784 7.63951 11.3238C7.55853 11.8693 7.5995 12.4259 7.75946 12.9536C7.91942 13.4813 8.19439 13.967 8.56458 14.3756C8.93477 14.7843 9.39097 15.1058 9.90034 15.3171ZM7.26497 7.80733C7.79857 7.27372 8.43205 6.85045 9.12924 6.56166C9.82643 6.27288 10.5737 6.12424 11.3283 6.12424C12.0829 6.12424 12.8302 6.27288 13.5274 6.56166C14.2245 6.85045 14.858 7.27372 15.3916 7.80733C15.9252 8.34093 16.3485 8.97441 16.6373 9.6716C16.9261 10.3688 17.0747 11.116 17.0747 11.8707C17.0747 12.6253 16.9261 13.3725 16.6373 14.0697C16.3485 14.7669 15.9252 15.4004 15.3916 15.934C14.314 17.0116 12.8523 17.6171 11.3283 17.6171C9.80425 17.6171 8.34263 17.0116 7.26497 15.934C6.18731 14.8563 5.58188 13.3947 5.58188 11.8707C5.58188 10.3466 6.18731 8.88499 7.26497 7.80733ZM18.3492 6.98003C18.4814 6.85529 18.5873 6.70529 18.6605 6.53891C18.7337 6.37253 18.7728 6.19315 18.7754 6.01138C18.7781 5.82962 18.7442 5.64918 18.6759 5.48073C18.6076 5.31229 18.5061 5.15927 18.3776 5.03073C18.249 4.90219 18.096 4.80075 17.9276 4.73241C17.7591 4.66407 17.5787 4.63023 17.3969 4.63288C17.2152 4.63552 17.0358 4.67462 16.8694 4.74784C16.703 4.82106 16.553 4.92691 16.4283 5.05914C16.1857 5.31631 16.0529 5.65789 16.058 6.01138C16.0632 6.36488 16.2059 6.70244 16.4559 6.95243C16.7059 7.20241 17.0434 7.34513 17.3969 7.35028C17.7504 7.35543 18.092 7.22262 18.3492 6.98003Z" fill="black"/>
</svg>
