<svg width="27" height="26" viewBox="0 0 27 26" fill="none" xmlns="http://www.w3.org/2000/svg">
<path fill-rule="evenodd" clip-rule="evenodd" d="M2.10219 1.33205C1.76587 1.52256 1.27898 2.17303 1.01994 2.77756C0.612643 3.72787 0.613307 4.02642 1.02292 4.98287C2.30783 7.98161 6.85972 7.10699 6.85972 3.86146C6.85972 1.7037 4.06636 0.218721 2.10219 1.33205ZM17.6391 9.18227C17.0919 9.41774 16.3599 9.92136 16.0123 10.3014C15.1486 11.2462 14.8199 11.1692 14.8199 10.0223V9.05192H12.3323H9.84479V17.3V25.5481H12.476H15.1068L15.2123 20.2363C15.3134 15.128 15.3482 14.8922 16.1214 14.0907C16.7008 13.49 17.2643 13.2568 18.1366 13.2568C19.0089 13.2568 19.5725 13.49 20.1519 14.0907C20.925 14.8922 20.9598 15.128 21.061 20.2363L21.1665 25.5481H23.7973H26.4285L26.4212 19.4833C26.4149 14.2799 26.327 13.2348 25.8016 12.1247C25.0932 10.6278 24.0033 9.56395 22.6756 9.07359C21.4076 8.60491 18.8517 8.66022 17.6391 9.18227ZM1.22127 17.3V25.5481H3.87466H6.52805V17.3V9.05192H3.87466H1.22127V17.3Z" fill="black"/>
</svg>
