<svg width="29" height="24" viewBox="0 0 29 24" fill="none" xmlns="http://www.w3.org/2000/svg">
<path d="M28.1268 3.34694C27.099 3.78355 25.9805 4.09777 24.8284 4.22015C26.0245 3.52038 26.9203 2.41486 27.3476 1.111C26.2251 1.76852 24.9955 2.22958 23.7132 2.47373C23.1773 1.90954 22.5291 1.46008 21.8091 1.15336C21.0891 0.846638 20.3126 0.689225 19.5281 0.690932C16.3539 0.690932 13.8012 3.22456 13.8012 6.33372C13.8012 6.77032 13.8549 7.20693 13.9422 7.62699C9.1894 7.38223 4.95048 5.14628 2.13237 1.72291C1.61888 2.58658 1.34979 3.56996 1.3531 4.57076C1.3531 6.52887 2.36413 8.25544 3.90586 9.27088C2.99729 9.23564 2.11 8.98972 1.31615 8.55313V8.62258C1.31615 11.3646 3.28447 13.6369 5.90776 14.1595C5.41521 14.2855 4.90851 14.35 4.39962 14.3514C4.02678 14.3514 3.6741 14.315 3.31805 14.2654C4.04357 16.5013 6.15632 18.1254 8.67213 18.1783C6.70382 19.6965 4.23839 20.5895 1.56135 20.5895C1.08103 20.5895 0.637658 20.573 0.17749 20.5201C2.71681 22.1243 5.72974 23.0504 8.97443 23.0504C19.5079 23.0504 25.2718 14.4572 25.2718 6.99855C25.2718 6.75378 25.2718 6.50902 25.255 6.26426C26.3701 5.46051 27.3476 4.46492 28.1268 3.34694Z" fill="black"/>
</svg>
