<svg class="icons_black" width="32" height="12" viewBox="0 0 32 12" fill="none" xmlns="http://www.w3.org/2000/svg">
<path d="M0.586984 11.6932L14.6098 11.6219L14.6308 7.3772L17.3551 7.36344L17.3333 11.6082L31.3561 11.5378L31.4128 0.306845L17.39 0.378089L17.3689 4.6228L14.6447 4.63656L14.6665 0.391845L0.643707 0.46225L0.586984 11.6932ZM3.34166 8.93848L3.37068 3.18957L11.9118 3.14643L11.9041 4.65051L9.15471 4.66437L9.14086 7.40523L11.8903 7.39136L11.8827 8.89543L3.34166 8.93848ZM20.0883 8.85388L20.0959 7.34979L22.8454 7.33594L22.8592 4.59507L20.1098 4.60896L20.1174 3.10452L28.6589 3.06096L28.63 8.81035L20.0885 8.85316L20.0883 8.85388Z" fill="white"/>
</svg>
