<svg class="icons_black" width="42" height="30" viewBox="0 0 43 31" fill="none" xmlns="http://www.w3.org/2000/svg">
<path d="M39.3766 0H3.02852C2.22518 0 1.45474 0.319126 0.886687 0.887175C0.318638 1.45522 -0.000488281 2.22566 -0.000488281 3.02901V27.2611C-0.000488281 28.0644 0.318638 28.8348 0.886687 29.4029C1.45474 29.9709 2.22518 30.2901 3.02852 30.2901H39.3766C40.1799 30.2901 40.9504 29.9709 41.5184 29.4029C42.0865 28.8348 42.4056 28.0644 42.4056 27.2611V3.02901C42.4056 2.22566 42.0865 1.45522 41.5184 0.887175C40.9504 0.319126 40.1799 0 39.3766 0ZM36.0447 3.02901L21.2026 13.2973L6.36042 3.02901H36.0447ZM3.02852 27.2611V4.4072L20.3393 16.3869C20.5928 16.5628 20.894 16.657 21.2026 16.657C21.5111 16.657 21.8123 16.5628 22.0658 16.3869L39.3766 4.4072V27.2611H3.02852Z" fill="white"/>
</svg>
