<svg class="icons_black" width="30" height="30" viewBox="0 0 31 31" fill="none" xmlns="http://www.w3.org/2000/svg">
<path fill-rule="evenodd" clip-rule="evenodd" d="M8.90066 0.0908702C10.5157 0.0165218 11.0306 0 15.1445 0C19.2585 0 19.7734 0.0178987 21.3871 0.0908702C23.0007 0.163842 24.1021 0.421307 25.0659 0.794426C26.0751 1.17581 26.9907 1.77197 27.748 2.54299C28.519 3.29886 29.1138 4.21307 29.4938 5.22366C29.8683 6.18743 30.1244 7.28889 30.1987 8.89977C30.2731 10.5175 30.2896 11.0325 30.2896 15.145C30.2896 19.259 30.2717 19.7739 30.1987 21.3889C30.1257 22.9998 29.8683 24.1013 29.4938 25.065C29.1138 26.0757 28.518 26.9915 27.748 27.7485C26.9907 28.5195 26.0751 29.1143 25.0659 29.4943C24.1021 29.8688 23.0007 30.1248 21.3898 30.1992C19.7734 30.2735 19.2585 30.2901 15.1445 30.2901C11.0306 30.2901 10.5157 30.2722 8.90066 30.1992C7.28978 30.1262 6.18832 29.8688 5.22455 29.4943C4.21385 29.1142 3.29813 28.5184 2.54112 27.7485C1.77063 26.9921 1.17437 26.0768 0.793938 25.0664C0.420819 24.1026 0.16473 23.0012 0.0903819 21.3903C0.0160335 19.7725 -0.000488281 19.2576 -0.000488281 15.145C-0.000488281 11.0311 0.0174104 10.5162 0.0903819 8.90252C0.163353 7.28889 0.420819 6.18743 0.793938 5.22366C1.17494 4.21318 1.77164 3.29792 2.5425 2.54161C3.29843 1.77128 4.21323 1.17504 5.22317 0.794426C6.18695 0.421307 7.2884 0.165219 8.89928 0.0908702H8.90066ZM21.2645 2.81698C19.6674 2.744 19.1883 2.72886 15.1445 2.72886C11.1008 2.72886 10.6217 2.744 9.02457 2.81698C7.54724 2.88444 6.74593 3.13089 6.21173 3.33879C5.50542 3.61416 5.00013 3.94046 4.47005 4.47054C3.96757 4.95938 3.58087 5.55448 3.3383 6.21222C3.1304 6.74642 2.88395 7.54773 2.81649 9.02506C2.74352 10.6222 2.72837 11.1013 2.72837 15.145C2.72837 19.1888 2.74352 19.6679 2.81649 21.265C2.88395 22.7423 3.1304 23.5436 3.3383 24.0778C3.58062 24.7346 3.96751 25.3308 4.47005 25.8195C4.95882 26.3221 5.55498 26.709 6.21173 26.9513C6.74593 27.1592 7.54724 27.4056 9.02457 27.4731C10.6217 27.5461 11.0994 27.5612 15.1445 27.5612C19.1896 27.5612 19.6674 27.5461 21.2645 27.4731C22.7418 27.4056 23.5432 27.1592 24.0774 26.9513C24.7837 26.6759 25.289 26.3496 25.819 25.8195C26.3216 25.3308 26.7085 24.7346 26.9508 24.0778C27.1587 23.5436 27.4051 22.7423 27.4726 21.265C27.5456 19.6679 27.5607 19.1888 27.5607 15.145C27.5607 11.1013 27.5456 10.6222 27.4726 9.02506C27.4051 7.54773 27.1587 6.74642 26.9508 6.21222C26.6754 5.50591 26.3491 5.00061 25.819 4.47054C25.3302 3.9681 24.7351 3.5814 24.0774 3.33879C23.5432 3.13089 22.7418 2.88444 21.2645 2.81698ZM13.2101 19.8138C14.2904 20.2635 15.4934 20.3242 16.6135 19.9855C17.7336 19.6469 18.7014 18.9298 19.3516 17.9568C20.0017 16.9839 20.2939 15.8154 20.1783 14.6509C20.0626 13.4864 19.5462 12.3982 18.7174 11.5722C18.189 11.0441 17.5501 10.6398 16.8468 10.3883C16.1434 10.1368 15.393 10.0444 14.6496 10.1177C13.9062 10.1911 13.1883 10.4283 12.5476 10.8124C11.9069 11.1964 11.3593 11.7178 10.9443 12.3389C10.5292 12.96 10.2571 13.6653 10.1474 14.4042C10.0377 15.1431 10.0932 15.8972 10.3099 16.6121C10.5266 17.3269 10.8991 17.9849 11.4006 18.5385C11.9021 19.0921 12.5201 19.5277 13.2101 19.8138ZM9.64001 9.6405C10.3629 8.91764 11.221 8.34423 12.1655 7.95302C13.11 7.5618 14.1223 7.36045 15.1445 7.36045C16.1668 7.36045 17.1791 7.5618 18.1236 7.95302C19.068 8.34423 19.9262 8.91764 20.6491 9.6405C21.3719 10.3634 21.9453 11.2215 22.3366 12.166C22.7278 13.1105 22.9291 14.1227 22.9291 15.145C22.9291 16.1673 22.7278 17.1796 22.3366 18.1241C21.9453 19.0685 21.3719 19.9267 20.6491 20.6496C19.1892 22.1095 17.2091 22.9296 15.1445 22.9296C13.0799 22.9296 11.0999 22.1095 9.64001 20.6496C8.18012 19.1897 7.35996 17.2096 7.35996 15.145C7.35996 13.0804 8.18012 11.1004 9.64001 9.6405ZM24.6556 8.51977C24.8348 8.35079 24.9782 8.14759 25.0773 7.92219C25.1765 7.6968 25.2295 7.45379 25.2331 7.20756C25.2367 6.96133 25.1908 6.71689 25.0982 6.4887C25.0057 6.26051 24.8682 6.05321 24.6941 5.87908C24.52 5.70495 24.3127 5.56753 24.0845 5.47495C23.8563 5.38238 23.6119 5.33652 23.3656 5.34011C23.1194 5.3437 22.8764 5.39666 22.651 5.49585C22.4256 5.59504 22.2224 5.73845 22.0534 5.91758C21.7248 6.26595 21.5449 6.72869 21.5519 7.20756C21.5588 7.68643 21.7522 8.14373 22.0908 8.48238C22.4295 8.82103 22.8868 9.01436 23.3656 9.02134C23.8445 9.02832 24.3072 8.8484 24.6556 8.51977Z" fill="white"/>
</svg>
