<svg width="159" height="155" viewBox="0 0 159 155" fill="none" xmlns="http://www.w3.org/2000/svg">
<path fill-rule="evenodd" clip-rule="evenodd" d="M77.6261 61.3317C71.0117 62.7997 65.9457 67.5609 63.9368 74.1976C63.4482 75.8119 63.3978 76.286 63.3733 79.4975L63.3464 83.0245L61.7423 85.9823C59.8366 89.4965 59.8404 89.4876 60.1586 89.7547C60.2959 89.87 61.4343 90.3647 62.6884 90.8541L64.9682 91.7441L65.0776 96.1512C65.1378 98.5753 65.2052 100.581 65.2271 100.609C65.2493 100.636 66.9241 100.659 68.9492 100.659H72.6311L72.6868 103.33L72.7424 106H81.7126H90.6828L90.7358 100.474C90.7711 96.8092 90.8632 94.8583 91.0095 94.6801C91.1751 94.4784 91.9681 94.4115 94.1955 94.4115H97.1613V95.2041C97.1613 95.8055 97.07 96.026 96.7827 96.1181C96.1494 96.3213 95.3798 97.2433 95.1627 98.0587C94.6 100.171 97.006 101.986 98.9399 100.908C100.783 99.88 100.733 97.1905 98.8542 96.2848C98.1936 95.9663 98.1731 95.92 98.1165 94.6301L98.0583 93.303L95.6164 93.2464C94.2732 93.2153 93.1745 93.1611 93.1745 93.1258C93.1745 93.0908 93.6475 92.572 94.2256 91.9732C94.8037 91.3745 95.5949 90.4828 95.984 89.9919L96.6912 89.0991L99.9661 89.7517C101.767 90.1104 103.398 90.4502 103.59 90.5066C103.87 90.5891 103.939 90.8378 103.939 91.7608C103.939 92.8509 103.907 92.9243 103.35 93.1367C101.591 93.8082 101.483 96.8698 103.187 97.7608C104.526 98.4608 105.959 98.0603 106.738 96.7687C107.479 95.5395 107.025 93.8715 105.772 93.2216C105.068 92.8566 105.067 92.854 104.99 91.2711C104.948 90.3994 104.876 89.6491 104.832 89.6037C104.787 89.5586 103.244 89.2174 101.404 88.8457C99.5639 88.4741 97.8655 88.1236 97.6299 88.0674C97.2065 87.966 97.2093 87.9473 97.8767 86.4015C98.248 85.5417 98.5528 84.6797 98.5542 84.4856C98.5564 84.1656 98.8321 84.1329 101.533 84.1329C104.303 84.1329 104.518 84.1601 104.632 84.5235C104.7 84.7386 105.068 85.192 105.45 85.5312C105.979 86.0004 106.337 86.1483 106.946 86.1483C108.618 86.1483 109.591 85.1297 109.609 83.362C109.619 82.3741 109.561 82.234 108.875 81.5986C108.27 81.0377 107.971 80.9085 107.281 80.9091C106.222 80.9099 105.169 81.5302 104.871 82.3289L104.649 82.9237H101.875H99.1004L99.2272 81.9885C99.297 81.4744 99.354 80.3605 99.354 79.5132V77.9729L103.291 77.1949C105.456 76.767 107.385 76.3362 107.577 76.2372C107.863 76.0895 107.926 75.7773 107.93 74.5023C107.934 72.9591 107.939 72.945 108.565 72.6335C109.494 72.1707 109.977 71.4035 109.999 70.3538C110.023 69.2595 109.52 68.4753 108.452 67.9386C106.507 66.9613 104.238 68.9963 104.925 71.1012C105.172 71.8587 106.151 72.8467 106.655 72.8467C106.887 72.8467 106.936 73.1028 106.889 74.09L106.829 75.3331L103.141 76.0969C101.113 76.5171 99.4068 76.8646 99.3496 76.8692C99.2924 76.8737 99.1329 76.2769 98.9952 75.5429C98.7922 74.4618 98.1382 72.5168 97.4294 70.8873C97.3484 70.7011 98.0198 70.6273 100.182 70.585L103.042 70.529L103.141 69.1656C103.234 67.8932 103.284 67.7759 103.878 67.4116C104.764 66.8688 105.201 66.1098 105.201 65.1156C105.201 62.2032 101.113 61.5653 100.16 64.3292C99.895 65.0997 99.9033 65.2492 100.26 66.1173C100.548 66.8162 100.845 67.1669 101.397 67.4561C102.067 67.807 102.145 67.9293 102.145 68.6341V69.4205H99.3747H96.6047L95.9882 68.4491C95.2761 67.3269 92.8877 64.9399 91.5798 64.043C90.1198 63.042 88.325 62.203 86.4562 61.6483C84.0297 60.928 80.0826 60.7865 77.6261 61.3317ZM86.5964 62.9432C92.2562 64.8073 96.1171 69.0706 97.6771 75.1787C98.1388 76.9865 98.1795 77.4525 98.0981 80.0014C97.9961 83.201 97.6512 84.6104 96.3472 87.156C95.0186 89.7492 93.0437 91.9013 90.5026 93.5245L89.5872 94.1091L89.5868 99.5003L89.5864 104.892H81.7184H73.8503L73.7947 102.221L73.7391 99.5507L70.0055 99.4959L66.2719 99.4411L66.218 95.2636L66.1642 91.086L63.935 90.1791C62.7089 89.6803 61.6452 89.2093 61.5711 89.1325C61.4969 89.0559 62.1583 87.6502 63.0408 86.0087L64.6453 83.0245L64.5289 80.3867C64.3955 77.3644 64.6068 75.8535 65.5243 73.2669C67.1059 68.8088 71.3008 64.6027 75.6244 63.1395C78.083 62.3076 79.0054 62.177 81.9119 62.2497C84.3809 62.3114 84.9209 62.3914 86.5964 62.9432ZM103.413 63.9936C103.794 64.2966 103.939 64.5971 103.939 65.0874C103.939 65.8117 103.212 66.599 102.543 66.599C101.875 66.599 101.148 65.8117 101.148 65.0874C101.148 64.3631 101.875 63.5759 102.543 63.5759C102.733 63.5759 103.125 63.7639 103.413 63.9936ZM76.7544 66.1009C76.5673 66.5945 76.6097 70.4879 76.8059 70.8007C76.8996 70.9502 77.1449 71.0397 77.3511 70.9996C77.6939 70.9327 77.7258 70.7128 77.7258 68.41C77.7258 65.9986 77.7081 65.8909 77.3026 65.8325C77.0531 65.7964 76.8282 65.9067 76.7544 66.1009ZM80.7081 66.0429C80.6499 66.1961 80.628 67.3588 80.6591 68.6266L80.7159 70.9321H81.2142H81.7126V68.4128C81.7126 65.9522 81.7022 65.8922 81.2633 65.8291C81.0149 65.7934 80.7665 65.8891 80.7081 66.0429ZM84.6428 66.0346C84.3636 66.317 84.3103 70.3704 84.58 70.8007C84.6737 70.9502 84.9191 71.0399 85.1252 71.0002C85.4559 70.9363 85.5141 70.6674 85.6198 68.7131C85.6856 67.4948 85.6601 66.3394 85.5628 66.1455C85.3577 65.7354 84.9833 65.6904 84.6428 66.0346ZM108.509 69.3469C108.736 69.639 108.922 70.0348 108.922 70.2267C108.922 70.8865 108.143 71.6377 107.462 71.6344C106.718 71.6308 106.472 71.4909 106.161 70.895C105.836 70.2706 105.874 69.9526 106.345 69.3469C106.645 68.9618 106.942 68.8159 107.427 68.8159C107.912 68.8159 108.209 68.9618 108.509 69.3469ZM76.1112 72.1947C75.5168 72.596 75.4334 73.3155 75.4334 78.0462C75.4334 82.6204 75.4548 82.8967 75.8467 83.4003L76.2597 83.9314H81.4281C86.3306 83.9314 86.6169 83.9106 86.995 83.5283C87.3728 83.1464 87.3937 82.8566 87.3937 77.986C87.3937 73.1153 87.3728 72.8255 86.995 72.4436C86.6169 72.0613 86.3328 72.0407 81.4634 72.0436C78.6404 72.0454 76.2318 72.1133 76.1112 72.1947ZM86.1514 77.9128L86.2049 82.6766L85.7528 82.7824C85.5042 82.8407 83.3721 82.8735 81.0149 82.8556L76.7291 82.8229L76.6755 78.1919C76.6458 75.6449 76.6661 73.4439 76.7204 73.3008C76.7979 73.0966 77.8149 73.0525 81.4586 73.095L86.098 73.149L86.1514 77.9128ZM69.5277 73.7474C69.4633 73.9171 69.4633 74.1948 69.5277 74.3645C69.6257 74.6227 70.0435 74.6638 72.0905 74.6164L74.5364 74.5598V74.0559V73.5521L72.0905 73.4954C70.0435 73.4481 69.6257 73.4892 69.5277 73.7474ZM88.2654 73.7474C88.201 73.9171 88.201 74.1948 88.2654 74.3645C88.3635 74.6227 88.7813 74.6638 90.8283 74.6164L93.2742 74.5598V74.0559V73.5521L90.8283 73.4954C88.7813 73.4481 88.3635 73.4892 88.2654 73.7474ZM69.6925 77.5224C69.3433 77.8755 69.3995 78.2449 69.8388 78.4828C70.2504 78.7055 73.7933 78.7736 74.3207 78.569C74.7296 78.4104 74.7296 77.5615 74.3207 77.4029C73.7235 77.1711 69.9435 77.2687 69.6925 77.5224ZM88.3764 77.5998C88.1865 77.8314 88.1719 78.0112 88.324 78.2548C88.4994 78.5358 88.9005 78.5906 90.7824 78.5906C92.6644 78.5906 93.0655 78.5358 93.2409 78.2548C93.393 78.0112 93.3784 77.8314 93.1885 77.5998C92.979 77.3447 92.4954 77.2806 90.7824 77.2806C89.0695 77.2806 88.5859 77.3447 88.3764 77.5998ZM69.6598 81.605C69.5217 81.7733 69.4619 82.0508 69.5269 82.2219C69.6259 82.4835 70.035 82.524 72.0905 82.4765L74.5364 82.4198V81.916V81.4121L72.2237 81.3557C70.3501 81.3098 69.8631 81.3571 69.6598 81.605ZM88.4207 81.4863C88.2728 81.5828 88.1843 81.8325 88.2239 82.0409C88.2901 82.3876 88.5076 82.4198 90.7852 82.4198H93.2742V81.916V81.4121L90.9818 81.3613C89.721 81.3335 88.5684 81.3898 88.4207 81.4863ZM108.31 82.6486C108.537 82.9406 108.723 83.3364 108.723 83.5283C108.723 83.7202 108.537 84.116 108.31 84.408C107.505 85.4419 105.733 84.8542 105.733 83.5537C105.733 82.2423 107.508 81.6187 108.31 82.6486ZM76.7624 85.0735C76.6893 85.1473 76.6295 86.2245 76.6295 87.4672C76.6295 89.8172 76.8202 90.3803 77.5239 90.1072C77.7709 90.0114 77.8255 89.5332 77.8255 87.4646C77.8255 84.9532 77.8229 84.9391 77.3604 84.9391C77.1045 84.9391 76.8354 84.9995 76.7624 85.0735ZM80.7081 85.1892C80.6499 85.3424 80.628 86.505 80.6591 87.7729L80.7159 90.0784H81.2142H81.7126V87.5591C81.7126 85.0985 81.7022 85.0384 81.2633 84.9754C81.0149 84.9397 80.7665 85.0354 80.7081 85.1892ZM84.5286 85.2472C84.4598 85.4284 84.4036 86.5034 84.4036 87.6361C84.4036 89.6733 84.549 90.1791 85.1342 90.1791C85.6447 90.1791 85.7697 89.4475 85.6351 87.2469C85.51 85.2017 85.4689 85.0354 85.0768 84.9788C84.8272 84.9427 84.6024 85.053 84.5286 85.2472ZM105.783 94.6438C106.271 95.2275 106.217 95.9557 105.642 96.5367C104.575 97.6161 102.92 96.6961 103.244 95.2035C103.492 94.064 105.016 93.728 105.783 94.6438ZM98.6417 97.5494C99.18 98.0936 99.2467 98.8258 98.812 99.4171C98.2584 100.17 97.3245 100.238 96.6663 99.5725C96.0563 98.9558 96.0324 98.465 96.5778 97.7641C97.0582 97.1464 98.1326 97.0347 98.6417 97.5494Z" fill="#F782C2"/>
<path d="M39.2232 62.8241C29.9061 34.085 66.4239 13.0014 86.6542 35.4398L94.33 43.9534C97.9251 47.9409 102.591 50.8108 107.771 52.221L127.385 57.56C155.804 65.2961 154.546 106.029 125.704 111.996L111.132 115.011C105.24 116.23 99.897 119.315 95.8953 123.808L85.9983 134.92C66.4093 156.914 30.5047 137.638 38.0146 109.158L43.1975 89.5027C44.5665 84.3112 44.414 78.8356 42.7583 73.7283L39.2232 62.8241Z" fill="#F782C2" fill-opacity="0.2"/>
</svg>
