<svg class="icons_black" width="23" height="33" viewBox="0 0 23 34" fill="none" xmlns="http://www.w3.org/2000/svg">
<path d="M12.3021 15.4696C11.1062 15.9847 9.74896 16.5687 7.98992 16.5687C7.25407 16.5672 6.52179 16.4657 5.81299 16.2667L7.02956 28.8334C7.07262 29.3587 7.31045 29.8484 7.69582 30.2054C8.08119 30.5624 8.5859 30.7605 9.10976 30.7604C9.10976 30.7604 10.8347 30.8505 11.4103 30.8505C12.0298 30.8505 13.8873 30.7604 13.8873 30.7604C14.4111 30.7604 14.9157 30.5622 15.301 30.2053C15.6862 29.8483 15.924 29.3586 15.9671 28.8334L17.2701 14.9467C16.6878 14.7466 16.1001 14.6138 15.4376 14.6138C14.2919 14.6133 13.3686 15.0104 12.3021 15.4696Z" fill="white"/>
<path d="M22.8969 8.95347L22.7137 8.02377C22.5493 7.18959 22.1762 6.40139 21.3251 6.0999C21.0523 6.00346 20.7428 5.962 20.5337 5.76236C20.3245 5.56272 20.2626 5.25266 20.2143 4.96514C20.1247 4.43741 20.0405 3.90924 19.9487 3.38243C19.8694 2.92951 19.8067 2.42071 19.6001 2.0052C19.3314 1.44729 18.7737 1.12102 18.2192 0.905147C17.935 0.798427 17.6451 0.708148 17.3507 0.634751C15.9652 0.267012 14.5086 0.131815 13.0833 0.054752C11.3725 -0.0402237 9.65717 -0.011609 7.95045 0.140377C6.68012 0.256647 5.34217 0.397253 4.135 0.839353C3.69379 1.00114 3.23914 1.19537 2.90364 1.53832C2.49199 1.95969 2.35762 2.61134 2.65818 3.13681C2.87184 3.50996 3.23377 3.7736 3.61764 3.948C4.11766 4.17272 4.63985 4.34371 5.17554 4.45815C6.66714 4.78983 8.21204 4.92007 9.73593 4.9755C11.4249 5.04409 13.1166 4.98851 14.7975 4.80921C15.2132 4.76325 15.6281 4.70811 16.0423 4.64382C16.5301 4.56856 16.8432 3.92682 16.6994 3.47976C16.5274 2.94529 16.0651 2.73798 15.5424 2.81864C15.4654 2.83082 15.3887 2.84208 15.3117 2.85335L15.2562 2.86146C15.0791 2.884 14.902 2.90502 14.7249 2.92455C14.3592 2.96421 13.9924 2.99666 13.6248 3.0219C12.8015 3.07958 11.976 3.10617 11.1509 3.10752C10.3402 3.10752 9.52899 3.08454 8.72 3.03091C8.3509 3.00657 7.9827 2.97562 7.6154 2.93807C7.44832 2.9205 7.2817 2.90202 7.11507 2.88129L6.9565 2.86101L6.92201 2.85605L6.75762 2.83217C6.42168 2.78124 6.08573 2.72266 5.75336 2.6519C5.71983 2.64442 5.68983 2.62565 5.66833 2.59869C5.64683 2.57173 5.63511 2.5382 5.63511 2.50363C5.63511 2.46908 5.64683 2.43554 5.66833 2.40859C5.68983 2.38163 5.71983 2.36285 5.75336 2.35537H5.75963C6.04765 2.29363 6.33791 2.24091 6.62906 2.19494C6.72612 2.17962 6.82346 2.16459 6.92112 2.14986H6.9238C7.10611 2.1377 7.28931 2.1048 7.47073 2.08317C9.04906 1.91799 10.6368 1.86169 12.2228 1.91462C12.9928 1.93716 13.7623 1.98267 14.5287 2.06109C14.6935 2.07822 14.8575 2.09624 15.0215 2.11652C15.0842 2.12418 15.1473 2.1332 15.2105 2.14086L15.3377 2.15933C15.7085 2.21492 16.0775 2.28236 16.4446 2.36168C16.9883 2.48065 17.6866 2.51941 17.9285 3.11879C18.0055 3.30896 18.0405 3.52033 18.083 3.71997L18.1372 3.97459C18.1387 3.97916 18.1397 3.98383 18.1403 3.98856C18.2685 4.58944 18.3967 5.19031 18.5252 5.7912C18.5345 5.83558 18.5348 5.88145 18.5258 5.92593C18.5168 5.97041 18.4988 6.01255 18.4729 6.04971C18.447 6.08688 18.4138 6.11828 18.3753 6.14197C18.3368 6.16564 18.2939 6.18109 18.2492 6.18733H18.2456L18.1672 6.19815L18.0897 6.20851C17.8443 6.24066 17.5985 6.2707 17.3525 6.29865C16.8678 6.35422 16.3824 6.40229 15.8963 6.44285C14.9302 6.52367 13.9623 6.5767 12.9923 6.60194C12.4981 6.61515 12.0041 6.62132 11.5102 6.62042C9.54414 6.61885 7.57993 6.50389 5.62705 6.27611C5.41562 6.25087 5.20421 6.22383 4.99279 6.19634C5.15672 6.21752 4.87364 6.18012 4.8163 6.17201C4.68192 6.15308 4.54754 6.1334 4.41316 6.11297C3.9621 6.04492 3.51372 5.9611 3.06356 5.88764C2.51932 5.79751 1.99883 5.84257 1.50656 6.11297C1.10247 6.33544 0.775425 6.67659 0.569042 7.0909C0.356725 7.53255 0.293563 8.0134 0.198607 8.48795C0.103644 8.96249 -0.0441724 9.47309 0.0118187 9.96026C0.132311 11.0117 0.862885 11.8661 1.91372 12.0572C2.9023 12.2375 3.89625 12.3834 4.8929 12.5078C8.80793 12.9903 12.7631 13.0479 16.6904 12.68C17.0102 12.65 17.3296 12.6171 17.6486 12.5818C17.7482 12.5707 17.849 12.5823 17.9436 12.6156C18.0382 12.6488 18.1242 12.7029 18.1953 12.774C18.2664 12.845 18.3209 12.9312 18.3546 13.026C18.3884 13.121 18.4005 13.2223 18.3903 13.3227L18.2909 14.2951C18.0905 16.2604 17.8902 18.2254 17.6897 20.1902C17.4807 22.2536 17.2703 24.3169 17.0586 26.38C16.9989 26.9611 16.9391 27.542 16.8794 28.1228C16.8221 28.6946 16.8141 29.2846 16.7061 29.8497C16.5359 30.7384 15.9379 31.2841 15.0654 31.4838C14.2659 31.6668 13.4493 31.7628 12.6295 31.7704C11.7206 31.7754 10.8122 31.7348 9.90345 31.7397C8.9332 31.7452 7.74485 31.655 6.99591 30.9285C6.33791 30.2904 6.24698 29.2913 6.1574 28.4274C6.03795 27.2836 5.91955 26.1399 5.80219 24.9965L5.14374 18.6382L4.71775 14.524C4.71059 14.456 4.70342 14.3889 4.6967 14.3204C4.64564 13.8297 4.30029 13.3492 3.75605 13.374C3.29021 13.3948 2.76075 13.7931 2.81541 14.3204L3.13119 17.3705L3.78427 23.6796C3.97031 25.4718 4.1559 27.2642 4.34104 29.0569C4.37688 29.4003 4.41047 29.7447 4.4481 30.0881C4.6528 31.9646 6.07721 32.9758 7.84116 33.2608C8.8714 33.4274 9.92676 33.4617 10.9722 33.4788C12.3124 33.5004 13.666 33.5523 14.9843 33.308C16.9377 32.9475 18.4033 31.6351 18.6125 29.5996C18.6722 29.0119 18.7319 28.4241 18.7917 27.8361C18.9903 25.8917 19.1886 23.9471 19.3865 22.0024L20.0342 15.648L20.3312 12.7359C20.346 12.5914 20.4066 12.4557 20.504 12.3487C20.6015 12.2416 20.7306 12.169 20.8723 12.1414C21.4309 12.0319 21.9648 11.8449 22.3621 11.4172C22.9946 10.7363 23.1205 9.84849 22.8969 8.95347ZM1.88505 9.5817C1.89357 9.57764 1.87788 9.65112 1.87117 9.68532C1.86982 9.63354 1.87251 9.58756 1.88505 9.5817ZM1.93926 10.0035C1.94374 10.0003 1.95717 10.0184 1.97105 10.04C1.95 10.0202 1.93657 10.0053 1.9388 10.0035H1.93926ZM1.99256 10.0743C2.01182 10.1072 2.02213 10.1279 1.99256 10.0743V10.0743ZM2.09961 10.1617H2.1023C2.1023 10.1649 2.10723 10.168 2.10902 10.1712C2.10605 10.1677 2.10275 10.1646 2.09917 10.1617H2.09961ZM20.8463 10.031C20.6456 10.223 20.3433 10.3122 20.0445 10.3568C16.694 10.8571 13.2947 11.1103 9.90743 10.9986C7.48326 10.9152 5.08461 10.6444 2.68461 10.3032C2.44944 10.2699 2.19458 10.2266 2.03288 10.0522C1.72828 9.72323 1.87788 9.06073 1.95717 8.66325C2.02974 8.29912 2.16859 7.81376 2.59905 7.76193C3.27094 7.68262 4.05124 7.96789 4.71597 8.06929C5.51626 8.19216 6.31955 8.29056 7.12582 8.36446C10.5668 8.67993 14.0656 8.63081 17.4913 8.16933C18.1158 8.08491 18.7379 7.98681 19.3578 7.87505C19.9101 7.77545 20.5225 7.58843 20.8562 8.16392C21.0851 8.55599 21.1156 9.08056 21.0801 9.52356C21.0692 9.71659 20.9854 9.89812 20.8459 10.031H20.8463Z" fill="white"/>
</svg>
