<svg class="icons_black" width="35" height="34" viewBox="0 0 35 34" fill="none" xmlns="http://www.w3.org/2000/svg">
<path fill-rule="evenodd" clip-rule="evenodd" d="M1.8786 0.513984C1.423 0.772071 0.763403 1.65325 0.412489 2.4722C-0.139269 3.75957 -0.138369 4.16401 0.416534 5.4597C2.15718 9.52205 8.32356 8.33722 8.32356 3.94054C8.32356 1.01745 4.53944 -0.994225 1.8786 0.513984ZM22.9263 11.1486C22.1849 11.4676 21.1933 12.1498 20.7224 12.6647C19.5524 13.9446 19.1071 13.8403 19.1071 12.2865V10.972H15.7372H12.3674V22.1455V33.3191H15.9318H19.4958L19.6386 26.1233C19.7757 19.2032 19.8228 18.8837 20.8702 17.7979C21.6552 16.9842 22.4185 16.6683 23.6002 16.6683C24.7819 16.6683 25.5453 16.9842 26.3303 17.7979C27.3776 18.8837 27.4248 19.2032 27.5618 26.1233L27.7047 33.3191H31.2687H34.8331L34.8232 25.1032C34.8147 18.0543 34.6956 16.6385 33.9839 15.1347C33.0241 13.1068 31.5477 11.6656 29.7491 11.0013C28.0314 10.3664 24.569 10.4413 22.9263 11.1486ZM0.685223 22.1455V33.3191H4.27973H7.87425V22.1455V10.972H4.27973H0.685223V22.1455Z" fill="white"/>
</svg>
