<svg width="145" height="138" viewBox="0 0 145 138" fill="none" xmlns="http://www.w3.org/2000/svg">
<path d="M37.1759 44.8115C35.6146 14.6403 76.3449 3.72661 90.0783 30.6363L95.2891 40.8465C97.7297 45.6287 101.494 49.6083 106.133 52.3113L123.696 62.5448C149.144 77.3726 137.387 116.392 107.983 114.691L93.1271 113.832C87.1204 113.484 81.1615 115.081 76.1333 118.385L63.6975 126.557C39.0833 142.732 9.39138 114.819 24.0164 89.2539L34.1099 71.6097C36.7759 66.9494 38.0458 61.6209 37.7683 56.2592L37.1759 44.8115Z" fill="#8A00D4" fill-opacity="0.101961"/>
<path fill-rule="evenodd" clip-rule="evenodd" d="M79.6343 57.119C75.0645 57.7555 70.93 59.6893 68.0875 62.5198C67.292 63.312 66.6675 63.9824 66.6998 64.0097C66.7322 64.0373 67.6498 63.9217 68.7393 63.7529C70.3274 63.5073 70.989 63.2902 72.0756 62.658C73.7068 61.7088 76.615 60.7221 78.75 60.3934C80.9961 60.0476 85.5122 60.262 87.61 60.8142C91.8365 61.9267 95.5145 64.5112 96.9411 67.3709C97.569 68.6291 97.6188 68.881 97.6188 70.7884C97.6188 72.7493 97.5842 72.9103 96.8934 74.1671C96.4943 74.8928 95.709 75.9512 95.1481 76.519L94.1283 77.5513L94.5874 80.3391C94.8401 81.8724 95.0995 83.3487 95.1642 83.6197C95.258 84.0136 94.7834 83.7167 92.801 82.1417C90.4573 80.2793 90.3105 80.1956 90.1335 80.6207C90.0305 80.8685 89.6418 81.6954 89.2694 82.4587C88.5317 83.9712 88.5759 84.0362 90.0032 83.5397L90.885 83.233L94.2392 85.4881C96.0841 86.7284 97.6155 87.7216 97.6424 87.6953C97.6691 87.6688 97.4662 85.9019 97.1914 83.7689L96.6917 79.8909L97.741 78.7334C103.501 72.3799 101.429 63.7698 93.0825 59.3716C91.6313 58.6068 89.3753 57.8268 87.4015 57.407C85.6202 57.0283 81.4075 56.8721 79.6343 57.119ZM64.7775 66.9067C56.9163 68.3158 51.503 72.5462 50.28 78.2365C49.7149 80.8662 49.9858 82.8543 51.2688 85.4912C51.9767 86.9461 52.4423 87.5543 54.049 89.1239L55.9788 91.0094L55.4704 94.9588C55.191 97.1308 55.0033 98.9486 55.0536 98.9982C55.1036 99.0477 56.9325 97.9135 59.1176 96.4779L63.0902 93.8675L64.6722 94.0996C69.5338 94.8124 74.8295 93.8944 78.8966 91.634C80.7676 90.5939 83.5863 87.9753 84.4865 86.441C86.5731 82.8837 86.7518 79.1818 85.0055 75.6776C83.5281 72.7127 81.3062 70.6322 77.8098 68.9402C74.4694 67.3236 72.9092 66.97 68.7393 66.8841C66.847 66.8452 65.0642 66.8555 64.7775 66.9067ZM72.8717 70.4794C77.2797 71.5349 80.8608 74.1498 82.3231 77.3809C82.9666 78.8031 83.0961 81.3596 82.5996 82.8458C80.8243 88.1603 73.5333 91.8338 66.3518 91.0316C65.3232 90.9167 64.2902 90.7773 64.0563 90.7216C63.7435 90.6474 62.8352 91.2491 60.6281 92.9935C58.9768 94.2986 57.5966 95.3381 57.5614 95.3031C57.5262 95.2684 57.7457 93.7692 58.0493 91.9718L58.6013 88.7037L57.9939 88.2796C56.3518 87.1332 54.9364 85.5699 54.1872 84.0753C52.8089 81.3257 53.0189 78.461 54.7906 75.8451C56.7636 72.9319 60.6447 70.8135 65.3643 70.0736C67.1112 69.7997 70.8841 70.0037 72.8717 70.4794ZM58.3135 81.3794V83.0241H59.8774H61.4413V81.3794V79.7347H59.8774H58.3135V81.3794ZM66.4457 81.3794V83.0241H68.1138H69.7819V81.3794V79.7347H68.1138H66.4457V81.3794ZM74.7863 81.3794V83.0241H76.3502H77.914V81.3794V79.7347H76.3502H74.7863V81.3794Z" fill="#8A00D4"/>
</svg>
