<svg width="81" height="81" viewBox="0 0 81 81" fill="none" xmlns="http://www.w3.org/2000/svg">
<circle cx="40.5" cy="40.5" r="40" stroke="white"/>
<g filter="url(#filter0_d_305_894)">
<circle cx="40.5" cy="40.5" r="31.5" fill="white"/>
</g>
<path fill-rule="evenodd" clip-rule="evenodd" d="M28.1608 23.1515C27.4143 23.378 26.6904 23.9876 26.334 24.69C26.0084 25.3319 26 25.7435 26 40.9905C26 53.8947 26.0407 56.7281 26.2326 57.1791C26.5139 57.8403 27.2643 58.5734 27.9114 58.8192C28.2302 58.9404 32.1215 59 39.7135 59C50.8251 59 51.0518 58.9934 51.6572 58.6512C52.3554 58.2566 52.9595 57.4566 53.2023 56.6054C53.2926 56.2884 53.3666 54.4081 53.3666 52.4267V48.8242L58.3717 43.5065C61.3678 40.323 63.5021 37.916 63.6892 37.5091C64.1094 36.5955 64.1026 35.0143 63.6744 34.0655C63.039 32.658 61.4761 31.5994 60.0329 31.5994C58.6604 31.5994 58.0311 32.0139 55.6049 34.5166L53.3666 36.8252V31.1896C53.3666 27.621 53.3007 25.3788 53.1869 25.0759C52.9315 24.396 52.2105 23.6719 51.4239 23.3058C50.7872 23.0093 50.1105 22.9918 39.6833 23.002C33.5976 23.008 28.4125 23.0753 28.1608 23.1515ZM50.7401 24.7531C51.0548 24.8854 51.3944 25.1479 51.4949 25.3366C51.6167 25.5655 51.6753 27.8157 51.6712 32.104L51.6653 38.5285L48.3764 42.0961C43.0357 47.8896 43.6756 46.9267 42.7102 50.6228C42.251 52.3805 41.8953 54.0009 41.9196 54.2239C41.9439 54.4468 42.1159 54.729 42.3017 54.851C42.5919 55.0413 43.1038 54.9536 45.9337 54.2283L49.2278 53.3843L50.4948 52.0946L51.7618 50.8049L51.8084 53.2617C51.8647 56.2259 51.7018 56.9066 50.8327 57.3433C50.2886 57.6168 49.39 57.6404 39.5455 57.6406C32.0002 57.6409 28.7409 57.585 28.4806 57.4511C28.2777 57.3468 27.9804 57.0983 27.8197 56.899C27.5481 56.5618 27.5276 55.4753 27.5241 41.2122C27.5212 29.4693 27.5687 25.7809 27.7275 25.4308C28.1385 24.5234 28.0983 24.5264 39.562 24.5193C48.3364 24.5139 50.2666 24.5541 50.7401 24.7531ZM42.3193 27.2374C41.686 27.428 40.8863 28.1891 40.5916 28.8819C39.6759 31.0344 41.6851 33.4388 43.899 32.8392C45.2534 32.4725 46.1045 31.3745 46.0999 30.0001C46.093 27.9971 44.2559 26.6546 42.3193 27.2374ZM29.286 28.1539C29.0765 28.4753 29.0583 28.6452 29.2036 28.9184C29.4294 29.3428 29.0157 29.2949 32.7376 29.3275C36.0082 29.3559 36.4736 29.2641 36.4736 28.59C36.4736 27.8634 35.9194 27.7406 32.6391 27.7406C29.5588 27.7406 29.555 27.7411 29.286 28.1539ZM44.1676 29.177C44.4291 29.4398 44.5823 29.7881 44.5823 30.119C44.5823 30.7739 43.9231 31.4781 43.3101 31.4781C42.7259 31.4781 41.8794 30.6268 41.8794 30.0393C41.8794 29.4228 42.5796 28.7599 43.2308 28.7599C43.5599 28.7599 43.9062 28.914 44.1676 29.177ZM29.2156 33.3357C28.9781 33.7821 28.995 33.9561 29.3061 34.2692C29.7011 34.6662 35.8133 34.6662 36.2083 34.2692C36.5194 33.9561 36.5363 33.7821 36.2988 33.3357C36.1349 33.0277 35.9128 33.0071 32.7572 33.0071C29.6016 33.0071 29.3794 33.0277 29.2156 33.3357ZM61.5791 33.8672C62.4375 34.6633 62.7243 35.9637 62.2466 36.8928C61.7339 37.89 61.6493 37.8632 60.0191 36.186C57.8911 33.9969 57.9542 34.1107 58.6306 33.6841C59.4246 33.1831 60.9435 33.2776 61.5791 33.8672ZM41.6414 34.4635C40.1717 35.0052 38.9885 36.3502 38.6522 37.8618C38.4973 38.5573 38.4942 38.8883 38.6392 39.2084C38.9475 39.8888 40.0195 39.6975 40.0222 38.9617C40.0281 37.2993 41.6 35.7389 43.2785 35.729C44.9647 35.7192 46.6094 37.2208 46.6094 38.77C46.6094 39.3166 46.888 39.6327 47.3696 39.6327C48.8565 39.6327 48.022 36.3551 46.2179 35.1081C45.7702 34.7987 45.124 34.4675 44.7819 34.372C43.9169 34.1304 42.4279 34.1737 41.6414 34.4635ZM57.5807 35.9708L58.1448 36.5559L55.972 38.9014C49.6434 45.7327 46.5432 48.9747 46.4535 48.8551C46.3984 48.7817 46.1383 48.4812 45.8754 48.1873L45.3974 47.6528L47.3125 45.6254C48.366 44.5104 50.9383 41.7519 53.0288 39.4955C55.1193 37.239 56.8717 35.3911 56.9233 35.3891C56.9746 35.3872 57.2706 35.6489 57.5807 35.9708ZM59.9039 38.4051L60.4164 39.0465L56.8697 42.8647C54.9191 44.9649 52.3338 47.7388 51.1248 49.0289L48.9265 51.3749L48.3592 50.8219C48.0472 50.5178 47.7919 50.2146 47.7919 50.1478C47.7919 50.0812 49.6733 48.0096 51.973 45.5442C54.2726 43.0788 56.8344 40.3196 57.6659 39.4127C58.4975 38.5059 59.226 37.764 59.2847 37.764C59.3435 37.764 59.6221 38.0524 59.9039 38.4051ZM29.286 38.5171C29.0765 38.8385 29.0583 39.0084 29.2036 39.2816C29.3828 39.6183 29.5273 39.6327 32.7293 39.6327C36.1574 39.6327 36.4736 39.5746 36.4736 38.9455C36.4736 38.7918 36.3346 38.5395 36.1647 38.3849C35.9005 38.1445 35.3998 38.1037 32.7055 38.1037H29.5553L29.286 38.5171ZM29.2163 43.6978C29.0326 44.0427 29.1456 44.5592 29.4507 44.7693C29.5504 44.8379 32.2301 44.8952 35.4058 44.8967C40.4317 44.8989 41.214 44.8646 41.4451 44.6324C41.7562 44.3193 41.7731 44.1453 41.5356 43.6988C41.3677 43.3835 41.1201 43.3703 35.3756 43.3703C29.6384 43.3703 29.3833 43.3839 29.2163 43.6978ZM29.286 48.8803C29.0765 49.2017 29.0583 49.3716 29.2036 49.6448C29.387 49.9896 29.4985 49.9959 35.3852 49.9959H41.3799L41.5719 49.5719C41.7307 49.2216 41.7108 49.0887 41.4577 48.8074C41.1625 48.4793 40.9407 48.4669 35.3533 48.4669H29.5553L29.286 48.8803ZM46.0898 50.6957C46.7795 51.4308 47.2988 52.0776 47.2436 52.1329C47.1208 52.2565 43.8873 53.0913 43.8147 53.0181C43.7305 52.9335 44.6453 49.3143 44.745 49.3379C44.7948 49.3497 45.4001 49.9608 46.0898 50.6957ZM29.2935 53.904C29.0404 54.1854 29.0205 54.3182 29.1793 54.6685L29.3713 55.0926H35.3756H41.3799L41.5719 54.6685C41.7307 54.3182 41.7108 54.1854 41.4577 53.904C41.1625 53.576 40.9407 53.5636 35.3756 53.5636C29.8105 53.5636 29.5887 53.576 29.2935 53.904Z" fill="#47BBCB"/>
<defs>
<filter id="filter0_d_305_894" x="5" y="9" width="71" height="71" filterUnits="userSpaceOnUse" color-interpolation-filters="sRGB">
<feFlood flood-opacity="0" result="BackgroundImageFix"/>
<feColorMatrix in="SourceAlpha" type="matrix" values="0 0 0 0 0 0 0 0 0 0 0 0 0 0 0 0 0 0 127 0" result="hardAlpha"/>
<feOffset dy="4"/>
<feGaussianBlur stdDeviation="2"/>
<feComposite in2="hardAlpha" operator="out"/>
<feColorMatrix type="matrix" values="0 0 0 0 0 0 0 0 0 0 0 0 0 0 0 0 0 0 0.25 0"/>
<feBlend mode="normal" in2="BackgroundImageFix" result="effect1_dropShadow_305_894"/>
<feBlend mode="normal" in="SourceGraphic" in2="effect1_dropShadow_305_894" result="shape"/>
</filter>
</defs>
</svg>
