<svg width="134" height="118" viewBox="0 0 134 118" fill="none" xmlns="http://www.w3.org/2000/svg">
<g clip-path="url(#clip0_4125_15)">
<path d="M53.2159 114.27C25.8265 127.02 0.449667 93.3435 20.2553 70.5294L27.77 61.8733C31.2897 57.819 33.5695 52.8382 34.3379 47.5246L37.2469 27.4066C41.4619 -1.74334 82.0443 -5.45872 91.4822 22.4412L96.2506 36.5372C98.1786 42.2366 101.891 47.1635 106.838 50.5878L119.074 59.0568C143.292 75.8194 128.534 113.806 99.3518 109.823L79.2113 107.074C73.8916 106.347 68.4754 107.166 63.608 109.432L53.2159 114.27Z" fill="#F9C46B" fill-opacity="0.2"/>
<path fill-rule="evenodd" clip-rule="evenodd" d="M59.4771 38.9685C59.2033 39.3886 59.8965 40.5785 60.2828 40.352C60.7295 40.0901 60.6556 39.4222 60.1346 39.0121C59.8316 38.7734 59.6134 38.759 59.4771 38.9685ZM77.9665 39.4206C77.5695 39.874 77.735 40.5139 78.2493 40.5139C78.6603 40.5139 78.9647 39.5316 78.6472 39.2304C78.4865 39.0779 78.1946 39.1593 77.9665 39.4206ZM68.3671 42.5474C68.4275 43.8349 68.6098 44.6273 68.864 44.7071C69.16 44.7998 69.2657 44.2651 69.2657 42.6733C69.2657 40.9288 69.1703 40.5139 68.7688 40.5139C68.361 40.5139 68.289 40.8776 68.3671 42.5474ZM60.5881 42.1325C60.5881 42.352 60.7829 42.7843 61.021 43.0931C61.5475 43.7761 62.0203 43.2611 61.712 42.3404C61.4871 41.6682 60.5881 41.502 60.5881 42.1325ZM76.669 42.323C76.4861 42.6474 76.3363 43.059 76.3363 43.2377C76.3363 43.745 77.2089 43.619 77.4268 43.0803C77.9327 41.8294 77.3028 41.1999 76.669 42.323ZM53.5175 46.5468C53.5175 46.6788 54.2236 47.4464 55.0865 48.2525C56.1439 49.2406 56.7324 49.6004 56.8915 49.3562C57.0339 49.1376 56.5756 48.4598 55.7377 47.6501C54.4637 46.4184 53.5175 45.9483 53.5175 46.5468ZM81.8013 47.6772C80.6928 48.7486 80.4682 49.1284 80.7716 49.4162C81.075 49.704 81.4754 49.4909 82.6048 48.4394C83.3996 47.6995 84.0498 46.9169 84.0498 46.7004C84.0498 45.9495 83.2125 46.3132 81.8013 47.6772ZM66.1987 48.094C62.8035 50.058 62.2276 53.939 64.9488 56.5201C67.4993 58.9399 72.1158 58.2149 73.7726 55.1344C75.0762 52.7101 74.1056 49.5074 71.6762 48.2184C70.0448 47.3525 67.5771 47.2967 66.1987 48.094ZM71.7093 49.3806C74.084 51.4851 74.0021 54.1832 71.5023 56.1786C70.694 56.8238 70.1695 56.9771 68.7701 56.9771C67.2978 56.9771 66.871 56.8378 65.922 56.0472C63.4225 53.9656 63.679 50.683 66.4709 49.019C67.903 48.1653 70.5436 48.3476 71.7093 49.3806ZM57.7692 51.0836C57.5445 51.1696 57.1553 51.6162 56.9043 52.0766C56.0395 53.6631 57.6194 60.3307 58.86 60.3307C59.4494 60.3307 59.4202 60.0508 58.6601 58.4207C57.8765 56.7405 57.3552 53.4171 57.7281 52.4802C57.9248 51.986 58.2616 51.7942 58.9339 51.7942C60.1311 51.7942 60.456 52.208 60.7302 54.0808C61.1959 57.2609 63.4045 59.9594 66.1068 60.6496C68.4584 61.2502 71.5119 60.9139 73.3165 59.8554C75.1594 58.7746 76.6317 56.3799 76.8969 54.0317C76.9881 53.2204 77.2067 52.3851 77.3818 52.1753C77.9044 51.5507 79.4808 51.7113 79.8868 52.4305C80.3714 53.29 79.9999 55.7518 79.036 58.0679C78.1365 60.2292 78.1217 60.3307 78.7073 60.3307C79.3594 60.3307 80.4637 57.6445 80.8959 55.0061C81.2491 52.8519 81.2308 52.6427 80.6211 51.865C80.1355 51.2455 79.6425 51.0089 78.6979 50.9412C77.0338 50.8223 76.3283 51.5592 75.9571 53.804C75.4606 56.8088 73.717 59.1219 71.4933 59.7271C69.7465 60.2021 66.9906 60.0707 65.5324 59.4426C63.3781 58.5146 61.5523 55.5695 61.5523 53.0229C61.5523 51.4266 59.5542 50.4025 57.7692 51.0836ZM46.1255 51.6092C46.1255 52.0086 46.7779 52.404 47.4374 52.404C47.9365 52.404 47.7636 51.5659 47.224 51.3696C46.4321 51.0811 46.1255 51.1482 46.1255 51.6092ZM90.3793 51.9891C90.044 52.307 90.4686 52.7089 91.1393 52.7089C91.4826 52.7089 91.7632 52.5031 91.7632 52.2516C91.7632 51.7994 90.7765 51.6122 90.3793 51.9891ZM49.018 52.8409C49.018 53.3378 50.1255 53.7637 50.6378 53.4637C51.1235 53.1787 50.3807 52.404 49.6216 52.404C49.2896 52.404 49.018 52.6006 49.018 52.8409ZM87.6654 53.0232C86.9442 53.2982 86.7237 53.7643 87.1865 54.0357C87.597 54.2762 89.5726 53.3509 89.3566 53.0195C89.1152 52.6491 88.6437 52.6503 87.6654 53.0232ZM47.519 60.4118C47.1456 60.985 48.022 61.2755 49.8549 61.1856C51.2816 61.1158 51.7499 60.9798 51.7499 60.6356C51.7499 60.2798 51.3005 60.1734 49.7248 60.1566C48.6108 60.1447 47.618 60.2594 47.519 60.4118ZM85.6567 60.788C85.6567 61.1508 86.1208 61.2453 87.9065 61.2453C89.6921 61.2453 90.1562 61.1508 90.1562 60.788C90.1562 60.4252 89.6921 60.3307 87.9065 60.3307C86.1208 60.3307 85.6567 60.4252 85.6567 60.788ZM56.2558 62.2298C53.0126 64.017 52.5716 68.5081 55.4166 70.7788C60.3175 74.6906 67.2724 68.9321 63.6844 63.9337C62.5509 62.3545 61.4273 61.7533 59.3871 61.6335C57.8974 61.5463 57.2845 61.663 56.2558 62.2298ZM76.0728 62.063C74.3984 62.8456 73.3554 64.3758 73.1877 66.2962C73.0122 68.3023 73.4785 69.48 74.9254 70.6852C77.0717 72.4726 79.9681 72.5208 82.1182 70.8047C84.6964 68.7468 84.8253 65.0145 82.393 62.8664C80.8384 61.4932 78.0497 61.1389 76.0728 62.063ZM61.4938 63.0837C62.9118 63.9038 63.9129 66.0151 63.6099 67.5468C63.3116 69.0556 61.704 70.6623 60.1642 70.99C57.2048 71.6202 54.4817 69.5876 54.4817 66.748C54.4817 65.1996 55.9128 63.1871 57.3742 62.6801C58.4743 62.2987 60.475 62.4947 61.4938 63.0837ZM81.0467 63.1042C83.9042 64.7791 83.7499 69.1144 80.7812 70.5708C77.6351 72.1141 74.0908 70.0775 74.0879 66.7248C74.085 63.3801 78.0227 61.3313 81.0467 63.1042ZM48.3434 64.941C47.0527 65.3858 46.6439 66.4136 46.865 68.6587C47.2201 72.2662 48.9772 75.4988 51.4657 77.1232C53.011 78.1317 53.4616 79.1155 53.7859 82.1875C53.9115 83.3798 54.1651 84.2661 54.4013 84.3402C54.9737 84.5204 54.9246 81.9381 54.3136 79.7125C53.8871 78.1592 53.5403 77.6707 51.6165 75.9138C49.1279 73.6412 48.1602 71.7193 47.8334 68.3989C47.6633 66.6697 47.709 66.4782 48.4048 66.016C49.369 65.3755 49.5245 65.3843 50.3036 66.1233C50.6883 66.4883 50.9464 67.1395 50.9464 67.7459C50.9464 70.8434 53.4211 73.9796 56.4001 74.6577C58.3824 75.1086 61.7432 74.8991 63.0699 74.2421C64.0965 73.7333 65.4759 72.3928 66.0386 71.3562C66.5117 70.4849 66.6075 70.5684 67.4862 72.6193C68.3138 74.551 68.1094 75.0412 65.8647 76.5064C64.2661 77.5494 63.5327 79.2244 63.4022 82.1292C63.2856 84.7234 63.8863 84.5646 64.323 81.8859C64.8463 78.6744 64.9076 78.5582 66.9826 76.8464L68.8598 75.2973L69.6254 76.0723C70.0461 76.4982 70.7882 77.0704 71.2744 77.3433C72.352 77.9488 73.0688 79.6335 73.3754 82.2817C73.6749 84.871 74.2672 84.5932 74.183 81.9027C74.1011 79.2832 73.2584 77.4168 71.7617 76.5391C69.5775 75.2586 67.7237 71.8559 67.436 68.5983C67.267 66.6864 67.3104 66.4809 67.9747 66.0392C69.3011 65.1581 70.0149 65.7575 70.4722 68.1361C70.962 70.6839 72.1769 72.6449 74.031 73.8812C75.3015 74.7281 75.6193 74.7985 78.2014 74.8052C81.6229 74.8138 82.4322 74.6129 83.9022 73.3885C85.3443 72.1873 86.2108 70.5937 86.7205 68.2041C87.2049 65.9346 87.9875 65.2352 89.1663 66.0188C89.8573 66.4779 89.9023 66.6764 89.7558 68.6196C89.5285 71.6327 87.7924 74.9101 85.65 76.3705C83.7788 77.6454 83.0534 79.1777 82.977 82.0143C82.9072 84.6185 83.504 84.8133 83.7968 82.2817C84.1234 79.4607 84.8118 78.007 86.2757 77.0488C88.6148 75.5171 90.3719 72.3223 90.6981 69.0062C90.9439 66.5114 90.6788 65.6279 89.5131 65.056C88.6698 64.6426 88.4265 64.6395 87.4401 65.0304C86.6456 65.3453 86.2674 65.7218 86.1317 66.3319C85.4838 69.2483 85.2126 70.065 84.5135 71.2034C83.2562 73.2507 81.8328 73.8976 78.5861 73.8976C76.2817 73.8976 75.6653 73.786 74.6461 73.1851C73.152 72.304 71.9715 70.4458 71.5113 68.2504C71.0144 65.8822 70.6731 65.2377 69.7362 64.8996C68.5969 64.4886 66.7675 65.2288 66.5728 66.1794C65.8535 69.691 65.5835 70.4925 64.755 71.5775C63.5543 73.1498 62.2321 73.7885 59.7991 73.9717C57.2804 74.1613 55.514 73.6885 54.2037 72.4732C52.7764 71.1492 52.2217 70.0404 51.8967 67.8599C51.5184 65.3221 50.2534 64.2828 48.3434 64.941Z" fill="#FF5777"/>
</g>
<defs>
<clipPath id="clip0_4125_15">
<rect width="134" height="118" fill="white"/>
</clipPath>
</defs>
</svg>
