<svg class="icons_black" width="32" height="32" viewBox="0 0 32 32" fill="none" xmlns="http://www.w3.org/2000/svg">
<path d="M15.9284 0.0255586C17.5803 0 19.2226 0.0151458 20.8631 0C20.9625 1.93204 21.6573 3.90005 23.0716 5.26601C24.483 6.66605 26.4794 7.30691 28.4218 7.52368V12.606C26.6015 12.5464 24.7726 12.1678 23.1208 11.384C22.4014 11.0583 21.7312 10.639 21.0752 10.2102C21.0666 13.8982 21.0903 17.5814 21.0515 21.2543C20.953 23.0188 20.3709 24.7748 19.3448 26.2288C17.6939 28.6492 14.8285 30.2272 11.8854 30.2765C10.0803 30.3797 8.27695 29.8874 6.73871 28.9806C4.18948 27.4773 2.39565 24.7255 2.13438 21.7721C2.10147 21.1466 2.09642 20.52 2.11924 19.894C2.34642 17.4925 3.53442 15.195 5.37842 13.6322C7.46855 11.8118 10.3964 10.9447 13.1378 11.4578C13.1634 13.3274 13.0886 15.195 13.0886 17.0646C11.8362 16.6594 10.3728 16.773 9.27847 17.5332C8.47786 18.0606 7.87284 18.8366 7.55658 19.7416C7.29532 20.3815 7.3701 21.0924 7.38524 21.7721C7.68532 23.8433 9.67699 25.5841 11.8031 25.3957C13.2126 25.3806 14.5634 24.5627 15.298 23.3652C15.5356 22.9459 15.8016 22.5171 15.8158 22.0239C15.9398 19.7662 15.8906 17.518 15.9057 15.2603C15.9161 10.1723 15.8906 5.09846 15.9294 0.0265052L15.9284 0.0255586Z" fill="white"/>
</svg>
