<svg width="119" height="109" viewBox="0 0 119 109" fill="none" xmlns="http://www.w3.org/2000/svg">
<g clip-path="url(#clip0_4122_9)">
<path d="M5.64844 42.8145C-10.7893 20.926 19.0273 -4.82097 44.3757 9.37321L53.9934 14.7588C58.4981 17.2813 63.7477 18.6322 69.1166 18.6506L89.4436 18.7204C118.896 18.8215 128.224 53.0772 101.909 64.5006L88.6136 70.2721C83.2379 72.6056 78.8758 76.3724 76.1733 81.0144L69.4896 92.4949C56.2605 115.218 16.5902 107.164 16.4731 81.7311L16.3923 64.1785C16.3709 59.5424 14.8065 55.0094 11.8853 51.1196L5.64844 42.8145Z" fill="#D527B7" fill-opacity="0.2"/>
<path fill-rule="evenodd" clip-rule="evenodd" d="M50.5353 33.7041C45.906 34.1172 41.8759 35.7397 38.0296 38.739C36.9377 39.5905 35.0331 41.5989 34.1813 42.7971C33.3165 44.0136 32.0267 46.4079 31.6309 47.5314C31.4606 48.015 31.2926 48.4835 31.2575 48.5726C31.21 48.6933 31.4602 48.7348 32.2348 48.7348H33.2757L33.6547 47.7943C35.3788 43.5161 38.4628 40.1444 42.6947 37.9108C45.0269 36.6798 47.4166 35.9437 50.1052 35.6278C51.9147 35.4153 54.956 35.5379 56.765 35.8963C62.69 37.0702 67.8929 40.8545 70.5822 45.9459C71.0609 46.8519 71.7855 48.4943 71.7855 48.6729C71.7855 48.7069 71.2248 48.7348 70.5395 48.7348C69.8543 48.7348 69.2936 48.7852 69.2936 48.8468C69.2936 48.9627 72.3472 53.1665 72.7205 53.5642C72.9154 53.772 72.9774 53.7241 73.5558 52.9157C73.8994 52.4354 74.672 51.3847 75.2725 50.5809C75.8731 49.7769 76.4 49.0327 76.4432 48.927C76.5093 48.7655 76.3121 48.7348 75.2093 48.7348H73.8968L73.4529 47.5441C71.1707 41.42 65.9019 36.6436 59.1674 34.5934C57.6665 34.1366 56.201 33.8613 54.3623 33.6909C52.7629 33.5426 52.3295 33.544 50.5353 33.7041ZM51.2682 40.7165L51.2275 41.6486L50.2585 41.8048C49.7255 41.8906 49.131 41.9999 48.9374 42.0473C48.6123 42.1272 48.5605 42.0764 48.2598 41.3806C48.0808 40.9664 47.8966 40.5889 47.8505 40.5417C47.7674 40.4569 45.7874 41.1421 45.5851 41.3256C45.5274 41.378 45.6492 41.7878 45.8557 42.2365C46.1988 42.9813 46.2111 43.0626 45.9987 43.1739C45.8708 43.241 45.3484 43.5584 44.8377 43.8793L43.9092 44.4627L43.2721 43.8747C42.9216 43.5513 42.5883 43.2867 42.5316 43.2867C42.4747 43.2867 42.0549 43.6496 41.5989 44.0931L40.7697 44.8996L41.4491 45.5362L42.1286 46.1729L41.4174 47.1843C41.0264 47.7406 40.6301 48.2003 40.5373 48.2058C40.4442 48.2114 40.0249 48.0737 39.6054 47.8999C39.186 47.7261 38.8177 47.6239 38.7869 47.6729C38.62 47.9386 37.8442 49.7916 37.887 49.8223C37.9148 49.8423 38.2968 49.9924 38.7359 50.1558C39.175 50.3192 39.5586 50.49 39.5884 50.5351C39.6182 50.5802 39.5602 50.9379 39.4594 51.3299C39.3586 51.7219 39.2369 52.2615 39.1889 52.529L39.1017 53.0154H38.139H37.1761V54.1829V55.3503H38.139H39.1017L39.1844 55.8368C39.2724 56.3534 39.5005 57.3587 39.6046 57.689C39.6495 57.8308 39.4089 57.9926 38.76 58.2575C38.2607 58.4614 37.8805 58.693 37.9144 58.7726C37.9482 58.8524 38.1485 59.3261 38.3598 59.8255C38.5709 60.325 38.7621 60.7553 38.7845 60.7821C38.8071 60.8087 39.2407 60.6747 39.7482 60.4844C40.2557 60.2939 40.6865 60.1554 40.7056 60.1764C40.7247 60.1974 40.8389 60.3967 40.9596 60.619C41.0802 60.8414 41.4053 61.3012 41.6819 61.6408L42.1849 62.2582L41.4804 62.9267L40.7759 63.5951L41.6749 64.4301L42.5739 65.265L43.2533 64.6382C43.6268 64.2934 43.9853 64.0326 44.0498 64.0588C44.2997 64.1602 46.1746 65.3543 46.1746 65.4122C46.1746 65.4459 46.019 65.8323 45.8287 66.2709C45.6385 66.7096 45.4983 67.0771 45.5173 67.0876C45.8647 67.2809 47.7411 67.9228 47.8218 67.876C47.8831 67.8406 48.044 67.5324 48.1795 67.1912C48.3151 66.85 48.4744 66.5207 48.5335 66.4594C48.5929 66.398 49.2369 66.4485 49.969 66.572L51.2967 66.796V67.6887V68.5814H52.5427H53.7886V67.6868V66.792L54.6538 66.6501C55.1298 66.572 55.7267 66.4519 55.9806 66.3832L56.442 66.2585L56.8526 67.1071C57.0978 67.6136 57.3302 67.9308 57.4295 67.8939C57.5209 67.8599 58.0317 67.6703 58.5647 67.4723C59.0977 67.2745 59.553 67.0993 59.5764 67.0828C59.5999 67.0663 59.453 66.6831 59.2501 66.2313C58.8943 65.4393 58.8903 65.4035 59.1381 65.2408C59.2796 65.1479 59.7762 64.8169 60.2417 64.5051L61.0881 63.9381L61.798 64.6033L62.5078 65.2683L63.4086 64.4318L64.3094 63.5951L63.5977 62.9198L62.886 62.2445L63.3006 61.7485C63.5288 61.4757 63.8648 61.0048 64.0472 60.7022C64.2297 60.3994 64.4181 60.1514 64.4657 60.1509C64.5133 60.1502 64.9118 60.2989 65.3513 60.481C65.7908 60.6631 66.2008 60.7648 66.2624 60.7071C66.3537 60.6215 67.217 58.7656 67.217 58.6548C67.217 58.6371 66.811 58.4608 66.3148 58.2631C65.6141 57.9841 65.4291 57.8548 65.4868 57.6846C65.5555 57.4818 65.9711 55.5244 65.9711 55.4038C65.9711 55.3743 66.4072 55.3503 66.9401 55.3503H67.9092V54.1829V53.0154H66.9428C66.0499 53.0154 65.9721 52.9932 65.9189 52.7236C65.8873 52.563 65.7602 52 65.6365 51.4724C65.5127 50.9447 65.4283 50.5023 65.4489 50.4889C65.4697 50.4756 65.8458 50.3309 66.2849 50.1675C66.724 50.004 67.1071 49.8337 67.136 49.789C67.2173 49.6637 66.2744 47.6284 66.1499 47.6606C66.0896 47.6763 65.6754 47.8182 65.2292 47.976C64.4692 48.245 64.4098 48.2488 64.2839 48.0382C64.2102 47.9146 63.8805 47.445 63.5515 46.9947L62.9533 46.1761L63.6327 45.5394L64.3122 44.9028L63.4118 44.0666L62.5114 43.2305L61.8368 43.853L61.1621 44.4756L60.2668 43.9136C59.7742 43.6045 59.2559 43.289 59.1148 43.2126C58.867 43.0785 58.8684 43.0503 59.1567 42.3694C59.3206 41.9821 59.4726 41.5898 59.4943 41.4976C59.5329 41.3335 57.4126 40.4058 57.2329 40.5081C57.1857 40.5351 57.0051 40.9127 56.8316 41.3474C56.5355 42.0895 56.4942 42.1323 56.156 42.0493C55.9581 42.0006 55.3599 41.8906 54.8269 41.8048L53.8578 41.6486L53.8171 40.7165L53.7764 39.7843H52.5427H51.3089L51.2682 40.7165ZM55.2422 44.5121C58.8266 45.4104 61.6592 48.0109 62.8088 51.4588C63.2325 52.7298 63.2671 55.4497 62.8766 56.7772C61.0771 62.8924 53.8178 65.9489 47.7666 63.1395C45.136 61.9183 43.1946 59.7746 42.2979 57.1015C41.8647 55.81 41.7652 53.5242 42.0837 52.1825C43.0265 48.212 46.2528 45.2041 50.4516 44.3813C51.5974 44.1568 54.0966 44.225 55.2422 44.5121ZM31.054 55.9689C29.3033 58.3268 28.4546 59.5019 28.4546 59.5678C28.4546 59.6026 29.0706 59.631 29.8236 59.631H31.1925L31.2892 60.1174C31.4397 60.8738 32.2799 62.8254 32.9789 64.0413C35.7058 68.786 40.146 72.314 45.5638 74.0407C48.0479 74.8323 49.2679 74.9976 52.6119 74.9957C55.4576 74.9941 55.7652 74.9702 57.2995 74.6317C65.2365 72.8808 71.5282 67.4094 73.772 60.3067L73.989 59.6202L72.944 59.6581L71.899 59.6958L71.3872 60.9968C69.4294 65.9733 65.2036 70.0039 59.9215 71.9327C53.0066 74.4576 45.3327 73.2849 39.6155 68.8297C36.9531 66.755 34.6513 63.66 33.5597 60.6874C33.166 59.615 33.1383 59.6455 34.5439 59.6035L35.7879 59.5661L35.1269 58.6581C33.7821 56.8109 32.5521 55.1476 32.3231 54.8663C32.0884 54.5781 32.0834 54.5824 31.054 55.9689Z" fill="#8A00D4"/>
</g>
<defs>
<clipPath id="clip0_4122_9">
<rect width="119" height="109" fill="white"/>
</clipPath>
</defs>
</svg>
