<svg class="icons_black" width="38" height="31" viewBox="0 0 38 31" fill="none" xmlns="http://www.w3.org/2000/svg">
<path d="M37.8621 3.59808C36.4697 4.18954 34.9545 4.61522 33.3937 4.78101C35.0141 3.83303 36.2276 2.3354 36.8064 0.569077C35.2859 1.45981 33.6201 2.0844 31.8831 2.41516C31.1571 1.65085 30.279 1.04198 29.3035 0.626464C28.3281 0.210951 27.2762 -0.00229319 26.2135 1.8597e-05C21.9135 1.8597e-05 18.4553 3.43229 18.4553 7.64422C18.4553 8.23568 18.5281 8.82715 18.6464 9.3962C12.2078 9.06463 6.46541 6.03562 2.64775 1.39802C1.95214 2.56802 1.58761 3.9002 1.5921 5.25597C1.5921 7.90859 2.96172 10.2476 5.05028 11.6232C3.81946 11.5754 2.61746 11.2423 1.54204 10.6508V10.7449C1.54204 14.4595 4.20849 17.5378 7.76223 18.2457C7.09497 18.4164 6.40856 18.5037 5.71917 18.5056C5.21409 18.5056 4.73631 18.4563 4.25399 18.3891C5.23684 21.4181 8.09894 23.6182 11.5071 23.6899C8.84063 25.7466 5.50076 26.9564 1.87421 26.9564C1.22353 26.9564 0.622895 26.934 -0.000488281 26.8623C3.4395 29.0354 7.52106 30.2901 11.9166 30.2901C26.1862 30.2901 33.9944 18.649 33.9944 8.54486C33.9944 8.21328 33.9944 7.8817 33.9716 7.55013C35.4823 6.4613 36.8064 5.11258 37.8621 3.59808Z" fill="white"/>
</svg>
